<svg width="420" height="420" viewBox="0 0 420 420" xmlns="http://www.w3.org/2000/svg">
  <rect width="100%" height="100%" fill="white"/>

  <!-- nuly -->
  <g fill="none" stroke="#b8c0cc" stroke-width="3">

    <!-- řada 1 -->
    <circle cx="70"  cy="95"  r="22"/>
    <circle cx="137" cy="85"  r="22"/>
    <circle cx="208" cy="77"  r="22"/>
    <circle cx="279" cy="73"  r="22"/>
    <circle cx="349" cy="71"  r="22"/>

    <!-- řada 2 -->
    <circle cx="70"  cy="160" r="22"/>
    <circle cx="136" cy="150" r="22"/>
    <circle cx="203" cy="145" r="22"/>
    <circle cx="271" cy="142" r="22"/>
    <circle cx="340" cy="141" r="22"/>

    <!-- řada 3 -->
    <!-- 1,3 chybí -->
    <circle cx="198" cy="210" r="22"/>  <!-- 3,3 výrazněji doleva -->
    <circle cx="266" cy="210" r="22"/>  <!-- 4,3 znatelně doleva -->
    <circle cx="338" cy="210" r="22"/>  <!-- 5,3 nejméně, ale víc než předtím -->

    <!-- řada 4 -->
    <circle cx="70"  cy="260" r="22"/>
    <circle cx="136" cy="270" r="22"/>
    <circle cx="203" cy="275" r="22"/>
    <circle cx="271" cy="278" r="22"/>
    <circle cx="340" cy="281" r="22"/>

    <!-- řada 5 -->
    <circle cx="70"  cy="325" r="22"/>
    <circle cx="137" cy="335" r="22"/>
    <circle cx="208" cy="343" r="22"/>
    <circle cx="279" cy="347" r="22"/>
    <circle cx="349" cy="349" r="22"/>

  </g>

  <!-- jednička -->
  <circle cx="140" cy="210" r="22" fill="#294a7a"/>

  <!-- prázdné místo -->
  <circle cx="70" cy="210" r="6" fill="#c43d3d"/>

  <text x="210" y="405" text-anchor="middle" font-family="Arial, sans-serif" font-size="28" fill="#333">
    Tak
  </text>
</svg>
