<svg width="420" height="420" viewBox="0 0 420 420" xmlns="http://www.w3.org/2000/svg">
  <rect width="100%" height="100%" fill="white"/>

  <!-- nuly -->
  <g fill="none" stroke="#b8c0cc" stroke-width="3">

    <!-- řada 1 -->
    <circle cx="70"  cy="78"  r="22"/>
    <circle cx="138" cy="74"  r="22"/>
    <circle cx="208" cy="71"  r="22"/>
    <circle cx="279" cy="70"  r="22"/>
    <circle cx="349" cy="70"  r="22"/>

    <!-- řada 2 -->
    <circle cx="70"  cy="152" r="22"/>
    <circle cx="134" cy="146" r="22"/>
    <circle cx="206" cy="143" r="22"/>
    <circle cx="278" cy="141" r="22"/>
    <circle cx="349" cy="140" r="22"/>

    <!-- řada 3 -->
    <!-- 1,3 chybí -->
    <circle cx="198" cy="210" r="22"/>  <!-- 3,3 výrazněji doleva -->
    <circle cx="266" cy="210" r="22"/>  <!-- 4,3 znatelně doleva -->
    <circle cx="338" cy="210" r="22"/>  <!-- 5,3 nejméně, ale víc než předtím -->

    <!-- řada 4 -->
    <circle cx="70"  cy="268" r="22"/>
    <circle cx="134" cy="274" r="22"/>
    <circle cx="206" cy="277" r="22"/>
    <circle cx="278" cy="279" r="22"/>
    <circle cx="349" cy="280" r="22"/>

    <!-- řada 5 -->
    <circle cx="70"  cy="342" r="22"/>
    <circle cx="138" cy="346" r="22"/>
    <circle cx="208" cy="349" r="22"/>
    <circle cx="279" cy="350" r="22"/>
    <circle cx="349" cy="350" r="22"/>

  </g>

  <!-- jednička -->
  <circle cx="140" cy="210" r="22" fill="#294a7a"/>

  <!-- prázdné místo -->
  <circle cx="70" cy="210" r="6" fill="#c43d3d"/>

  <text x="210" y="405" text-anchor="middle" font-family="Arial, sans-serif" font-size="28" fill="#333">
    Tak
  </text>
</svg>
