<svg width="420" height="420" viewBox="0 0 420 420" xmlns="http://www.w3.org/2000/svg">
  <rect width="100%" height="100%" fill="white"/>

  <!-- nuly -->
  <g fill="none" stroke="#b8c0cc" stroke-width="3">

    <!-- řada 1 -->
    <circle cx="70"  cy="82"  r="22"/>
    <circle cx="140" cy="78"  r="22"/>
    <circle cx="210" cy="75"  r="22"/>
    <circle cx="280" cy="72"  r="22"/>
    <circle cx="350" cy="71"  r="22"/>

    <!-- řada 2 -->
    <circle cx="70"  cy="158" r="22"/>   <!-- víc dolů -->
    <circle cx="122" cy="150" r="22"/>
    <circle cx="202" cy="145" r="22"/>
    <circle cx="276" cy="142" r="22"/>
    <circle cx="347" cy="140" r="22"/>

    <!-- řada 3 -->
    <!-- (1,3) chybí -->
    <circle cx="185" cy="210" r="22"/>
    <circle cx="265" cy="210" r="22"/>
    <circle cx="338" cy="210" r="22"/>

    <!-- řada 4 -->
    <circle cx="70"  cy="262" r="22"/>   <!-- víc nahoru -->
    <circle cx="122" cy="270" r="22"/>
    <circle cx="202" cy="275" r="22"/>
    <circle cx="276" cy="278" r="22"/>
    <circle cx="347" cy="280" r="22"/>

    <!-- řada 5 -->
    <circle cx="70"  cy="338" r="22"/>
    <circle cx="140" cy="342" r="22"/>
    <circle cx="210" cy="345" r="22"/>
    <circle cx="280" cy="348" r="22"/>
    <circle cx="350" cy="349" r="22"/>

  </g>

  <!-- jednička -->
  <circle cx="125" cy="210" r="22" fill="#294a7a"/>

  <text x="210" y="405" text-anchor="middle" font-family="Arial, sans-serif" font-size="28" fill="#333">
    Tak
  </text>
</svg>
