<svg width="420" height="420" viewBox="0 0 420 420" xmlns="http://www.w3.org/2000/svg">
  <rect width="100%" height="100%" fill="white"/>

  <!-- nuly -->
  <g fill="none" stroke="#b8c0cc" stroke-width="3">

    <!-- řada 1 -->
    <circle cx="84"  cy="116" r="22"/>
    <circle cx="144" cy="108" r="22"/>
    <circle cx="208" cy="95"  r="22"/>
    <circle cx="274" cy="84"  r="22"/>  <!-- 4,1 doprava -->
    <circle cx="346" cy="78"  r="22"/>

    <!-- řada 2 -->
    <circle cx="96"  cy="178" r="22"/>
    <circle cx="150" cy="170" r="22"/>
    <circle cx="204" cy="160" r="22"/>
    <circle cx="265" cy="150" r="22"/>
    <circle cx="330" cy="142" r="22"/>

    <!-- řada 3 -->
    <!-- (1,3) chybí -->
    <!-- (2,3) chybí -->
    <circle cx="322" cy="210" r="22"/>

    <!-- řada 4 -->
    <circle cx="96"  cy="242" r="22"/>
    <circle cx="150" cy="250" r="22"/>
    <circle cx="204" cy="260" r="22"/>
    <circle cx="265" cy="270" r="22"/>
    <circle cx="330" cy="278" r="22"/>

    <!-- řada 5 -->
    <circle cx="82"  cy="304" r="22"/>
    <circle cx="144" cy="312" r="22"/>
    <circle cx="208" cy="325" r="22"/>
    <circle cx="274" cy="336" r="22"/>  <!-- 4,5 doprava -->
    <circle cx="344" cy="342" r="22"/>

  </g>

  <!-- jednička -->
  <circle cx="265" cy="210" r="22" fill="#294a7a"/>

  <!-- brázda -->
  <path d="
    M 78 210
    C 102 190, 138 178, 188 172
    C 230 168, 262 172, 288 184
    C 302 190, 308 199, 308 210
    C 308 221, 302 230, 288 236
    C 262 248, 230 252, 188 248
    C 138 242, 102 230, 78 210
    Z"
    fill="none"
    stroke="#7aa0d8"
    stroke-width="3"
    stroke-dasharray="10 8"/>

  <!-- těžiště -->
  <circle cx="192" cy="210" r="6" fill="#c43d3d"/>

  <!-- popisek -->
  <text x="210" y="405" text-anchor="middle" font-family="Arial, sans-serif" font-size="28" fill="#333">
    Tak
  </text>
</svg>
