<svg width="420" height="420" viewBox="0 0 420 420" xmlns="http://www.w3.org/2000/svg">
  <rect width="100%" height="100%" fill="white"/>

  <!-- nuly -->
  <g fill="none" stroke="#b8c0cc" stroke-width="3">

    <!-- řada 1 -->
    <circle cx="72"  cy="105"  r="22"/>
    <circle cx="137" cy="95"  r="22"/>
    <circle cx="203" cy="85"  r="22"/>
    <circle cx="272" cy="77"  r="22"/>
    <circle cx="345" cy="74"  r="22"/>

    <!-- řada 2 -->
    <circle cx="79"  cy="175" r="22"/>
    <circle cx="136" cy="164" r="22"/>
    <circle cx="195" cy="155" r="22"/>
    <circle cx="256" cy="143" r="22"/>
    <circle cx="325" cy="142" r="22"/>

    <!-- řada 3 -->
    <!-- 1,3 chybí -->
    <!-- 2,3 nyní chybí, nahrazena červenou tečkou -->
    <circle cx="248" cy="210" r="22"/>
    <circle cx="319" cy="210" r="22"/>

    <!-- řada 4 -->
    <circle cx="79"  cy="245" r="22"/>
    <circle cx="136" cy="256" r="22"/>
    <circle cx="195" cy="265" r="22"/>
    <circle cx="256" cy="277" r="22"/>
    <circle cx="325" cy="278" r="22"/>

    <!-- řada 5 -->
    <circle cx="72"  cy="315" r="22"/>
    <circle cx="137" cy="325" r="22"/>
    <circle cx="203" cy="335" r="22"/>
    <circle cx="272" cy="343" r="22"/>
    <circle cx="345" cy="346" r="22"/>

  </g>

  <!-- jednička přeskočila na nejbližší nulu -->
  <circle cx="194" cy="210" r="22" fill="#294a7a"/>

  <!-- červená tečka na předchozí pozici jedničky -->
  <circle cx="140" cy="210" r="6" fill="#c43d3d"/>
  <circle cx="70" cy="210" r="6" fill="#c43d3d"/>
  
  <!-- brázda jako kapka -->
  <path d="
  M 20 210
  L 194 180
  A 32 32 0 0 1 194 240
  Z"
  fill="none"
  stroke="#7aa0d8"
  stroke-width="3"
  stroke-dasharray="10 8"/>

  <text x="210" y="405" text-anchor="middle" font-family="Arial, sans-serif" font-size="28" fill="#333">
    Tik
  </text>
</svg>
