<svg width="420" height="420" viewBox="0 0 420 420" xmlns="http://www.w3.org/2000/svg">
  <rect width="100%" height="100%" fill="white"/>

  <!-- nuly -->
  <g fill="none" stroke="#b8c0cc" stroke-width="3">

    <!-- řada 1 -->
    <circle cx="72"  cy="100" r="22"/>
    <circle cx="132" cy="90"  r="22"/>
    <circle cx="202" cy="80"  r="22"/>
    <circle cx="275" cy="75"  r="22"/>
    <circle cx="347" cy="72"  r="22"/>

    <!-- řada 2 -->
    <circle cx="74"  cy="168" r="22"/>
    <circle cx="126" cy="156" r="22"/>
    <circle cx="196" cy="146" r="22"/>
    <circle cx="270" cy="143" r="22"/>
    <circle cx="340" cy="141" r="22"/>

    <!-- řada 3 -->
    <!-- 1,3 chybí -->
    <!-- 2,3 chybí -->
    <circle cx="252" cy="210" r="22"/>
    <circle cx="330" cy="210" r="22"/>

    <!-- řada 4 -->
    <circle cx="74"  cy="252" r="22"/>
    <circle cx="126" cy="264" r="22"/>
    <circle cx="196" cy="274" r="22"/>
    <circle cx="270" cy="277" r="22"/>
    <circle cx="340" cy="279" r="22"/>

    <!-- řada 5 -->
    <circle cx="72"  cy="320" r="22"/>
    <circle cx="132" cy="330" r="22"/>
    <circle cx="202" cy="340" r="22"/>
    <circle cx="275" cy="345" r="22"/>
    <circle cx="347" cy="348" r="22"/>

  </g>

  <!-- jednička zůstává -->
  <circle cx="194" cy="210" r="22" fill="#294a7a"/>

  <!-- mezery po Tik1 a Tik2 -->
  <circle cx="70"  cy="210" r="6" fill="#c43d3d"/>
  <circle cx="140" cy="210" r="6" fill="#c43d3d"/>

  <!-- brázda: za jedničkou, rozšířená -->
  <path d="
    M 28 210
    L 194 178
    A 34 34 0 0 1 194 242
    Z"
    fill="none"
    stroke="#7aa0d8"
    stroke-width="3"
    stroke-dasharray="10 8"/>

  <text x="210" y="405" text-anchor="middle" font-family="Arial, sans-serif" font-size="28" fill="#333">
    Tak
  </text>
</svg>
