<svg width="420" height="420" viewBox="0 0 420 420" xmlns="http://www.w3.org/2000/svg">
  <rect width="100%" height="100%" fill="white"/>

  <!-- nuly -->
  <g fill="none" stroke="#b8c0cc" stroke-width="3">

    <!-- řada 1 -->
    <circle cx="80"  cy="111" r="22"/>
    <circle cx="137" cy="106"  r="22"/>
    <circle cx="196" cy="98"  r="22"/>
    <circle cx="258" cy="87"  r="22"/>
    <circle cx="322" cy="80"  r="22"/>

    <!-- řada 2 -->
    <circle cx="84"  cy="176" r="22"/>
    <circle cx="142" cy="174" r="22"/>
    <circle cx="196" cy="164" r="22"/>
    <circle cx="250" cy="152" r="22"/>
    <circle cx="310" cy="147" r="22"/>

    <!-- řada 3 -->
    <!-- 1,3 chybí -->
    <!-- 2,3 chybí -->
    <!-- 3,3 nyní chybí, nahrazena červenou tečkou -->
    <circle cx="302" cy="210" r="22"/>

    <!-- řada 4 -->
    <circle cx="84"  cy="244" r="22"/>
    <circle cx="142" cy="246" r="22"/>
    <circle cx="196" cy="256" r="22"/>
    <circle cx="250" cy="268" r="22"/>
    <circle cx="310" cy="273" r="22"/>

    <!-- řada 5 -->
    <circle cx="80"  cy="309" r="22"/>
    <circle cx="137" cy="314" r="22"/>
    <circle cx="196" cy="322" r="22"/>
    <circle cx="258" cy="333" r="22"/>
    <circle cx="322" cy="342" r="22"/>

  </g>

  <!-- jednička -->
  <circle cx="248" cy="210" r="22" fill="#294a7a"/>

  <!-- červené tečky na předchozích pozicích -->
  <circle cx="70"  cy="210" r="6" fill="#c43d3d"/>
  <circle cx="140" cy="210" r="6" fill="#c43d3d"/>
  <circle cx="194" cy="210" r="6" fill="#c43d3d"/>

  <!-- brázda -->
  <path d="
    M 78 210
    L 248 180
    A 32 32 0 0 1 248 242
    Z"
    fill="none"
    stroke="#7aa0d8"
    stroke-width="3"
    stroke-dasharray="10 8"/>

  <text x="210" y="405" text-anchor="middle" font-family="Arial, sans-serif" font-size="28" fill="#333">
    Tak 3
  </text>
</svg>
